<svg width="32" height="32" viewBox="0 0 32 32" fill="none" xmlns="http://www.w3.org/2000/svg">
<path d="M6.66675 17.3333H22.4801L17.6401 23.1466C17.4138 23.4189 17.3049 23.77 17.3374 24.1225C17.3699 24.4751 17.5411 24.8003 17.8134 25.0266C18.0857 25.2529 18.4367 25.3618 18.7893 25.3293C19.1419 25.2968 19.4671 25.1256 19.6934 24.8533L26.3601 16.8533C26.4049 16.7897 26.445 16.7228 26.4801 16.6533C26.4801 16.5866 26.4801 16.5466 26.5734 16.48C26.6338 16.3271 26.6655 16.1643 26.6667 16C26.6655 15.8356 26.6338 15.6728 26.5734 15.52C26.5734 15.4533 26.5734 15.4133 26.4801 15.3466C26.445 15.2771 26.4049 15.2103 26.3601 15.1466L19.6934 7.14663C19.5681 6.99612 19.4111 6.87508 19.2336 6.79211C19.0562 6.70915 18.8626 6.66631 18.6667 6.66663C18.3552 6.66602 18.0533 6.77452 17.8134 6.97329C17.6784 7.08522 17.5668 7.22269 17.485 7.37782C17.4032 7.53295 17.3528 7.70269 17.3367 7.87733C17.3206 8.05197 17.3391 8.22806 17.3912 8.39553C17.4432 8.563 17.5278 8.71856 17.6401 8.85329L22.4801 14.6666H6.66675C6.31313 14.6666 5.97399 14.8071 5.72394 15.0571C5.47389 15.3072 5.33342 15.6463 5.33342 16C5.33342 16.3536 5.47389 16.6927 5.72394 16.9428C5.97399 17.1928 6.31313 17.3333 6.66675 17.3333Z" fill="#F2F2F2"/>
</svg>
